<mxfile host="app.diagrams.net" modified="2022-09-29T09:43:02.866Z" agent="5.0 (Windows NT 10.0; Win64; x64) AppleWebKit/537.36 (KHTML, like Gecko) Chrome/105.0.0.0 Safari/537.36" etag="T9R5XLjkvOd314aY4hsU" version="20.3.7" type="github">
  <diagram id="OfMqE86fzqmuqNu7bEOM" name="Page-1">
    <mxGraphModel dx="2445" dy="935" grid="1" gridSize="10" guides="1" tooltips="1" connect="1" arrows="1" fold="1" page="1" pageScale="1" pageWidth="827" pageHeight="1169" math="0" shadow="0">
      <root>
        <mxCell id="0" />
        <mxCell id="1" parent="0" />
        <mxCell id="C84C1XWZvULB8mIjfQMl-4" value="" style="rounded=1;whiteSpace=wrap;html=1;fillColor=#f5f5f5;fontColor=#333333;strokeColor=#666666;" vertex="1" parent="1">
          <mxGeometry x="-71" width="970" height="770" as="geometry" />
        </mxCell>
        <mxCell id="C84C1XWZvULB8mIjfQMl-6" value="&lt;font style=&quot;font-size: 25px;&quot;&gt;Covid 19 Tracker&lt;/font&gt;" style="text;html=1;strokeColor=none;fillColor=none;align=center;verticalAlign=middle;whiteSpace=wrap;rounded=0;fontSize=33;" vertex="1" parent="1">
          <mxGeometry x="-10" y="80" width="330" height="30" as="geometry" />
        </mxCell>
        <mxCell id="C84C1XWZvULB8mIjfQMl-7" value="&lt;div style=&quot;text-align: justify;&quot;&gt;&lt;span style=&quot;font-size: 21px; background-color: initial;&quot;&gt;Worldwide&lt;/span&gt;&lt;/div&gt;" style="rounded=1;whiteSpace=wrap;html=1;fontSize=33;align=center;" vertex="1" parent="1">
          <mxGeometry x="304" y="71.25" width="220" height="47.5" as="geometry" />
        </mxCell>
        <mxCell id="C84C1XWZvULB8mIjfQMl-10" value="Coronavirus Cases&lt;br&gt;+ 2000&lt;br&gt;1.2 M Total" style="rounded=1;whiteSpace=wrap;html=1;fontSize=12;align=center;" vertex="1" parent="1">
          <mxGeometry x="-10" y="130" width="180" height="60" as="geometry" />
        </mxCell>
        <mxCell id="C84C1XWZvULB8mIjfQMl-12" value="Recovered&amp;nbsp;&lt;br&gt;+ 2000&lt;span style=&quot;white-space: pre;&quot;&gt;	&lt;/span&gt;&lt;br&gt;1.2 M Total" style="rounded=1;whiteSpace=wrap;html=1;fontSize=12;align=center;" vertex="1" parent="1">
          <mxGeometry x="195" y="130" width="180" height="60" as="geometry" />
        </mxCell>
        <mxCell id="C84C1XWZvULB8mIjfQMl-13" value="Deaths&lt;br&gt;+ 2000&lt;br&gt;1.2 M Total" style="rounded=1;whiteSpace=wrap;html=1;fontSize=12;align=center;" vertex="1" parent="1">
          <mxGeometry x="390" y="130" width="170" height="60" as="geometry" />
        </mxCell>
        <mxCell id="C84C1XWZvULB8mIjfQMl-14" value="" style="rounded=1;whiteSpace=wrap;html=1;fontSize=21;" vertex="1" parent="1">
          <mxGeometry x="-30" y="210" width="610" height="450" as="geometry" />
        </mxCell>
        <mxCell id="C84C1XWZvULB8mIjfQMl-20" value="" style="rounded=1;whiteSpace=wrap;html=1;fontSize=21;" vertex="1" parent="1">
          <mxGeometry x="590" y="70" width="280" height="590" as="geometry" />
        </mxCell>
        <mxCell id="C84C1XWZvULB8mIjfQMl-21" value="Cases by Country" style="text;html=1;strokeColor=none;fillColor=none;align=center;verticalAlign=middle;whiteSpace=wrap;rounded=0;fontSize=21;" vertex="1" parent="1">
          <mxGeometry x="610" y="88" width="180" height="30" as="geometry" />
        </mxCell>
        <mxCell id="C84C1XWZvULB8mIjfQMl-22" value="Worldwide new cases" style="text;html=1;strokeColor=none;fillColor=none;align=center;verticalAlign=middle;whiteSpace=wrap;rounded=0;fontSize=21;" vertex="1" parent="1">
          <mxGeometry x="610" y="440" width="220" height="30" as="geometry" />
        </mxCell>
        <mxCell id="C84C1XWZvULB8mIjfQMl-38" value="" style="fillColor=#10739E;strokeColor=none;fontSize=21;" vertex="1" parent="1">
          <mxGeometry x="635" y="520" width="30" height="100" as="geometry" />
        </mxCell>
        <mxCell id="C84C1XWZvULB8mIjfQMl-39" value="" style="shape=mxgraph.arrows2.arrow;dy=0.4;dx=16;notch=0;direction=north;fillColor=#1699D3;strokeColor=none;fontSize=21;" vertex="1" parent="C84C1XWZvULB8mIjfQMl-38">
          <mxGeometry x="3" y="30" width="24" height="70" as="geometry" />
        </mxCell>
        <mxCell id="C84C1XWZvULB8mIjfQMl-40" value="Label" style="text;html=1;align=center;verticalAlign=middle;whiteSpace=wrap;fontColor=#FFFFFF;fontSize=10;strokeColor=none;fillColor=none;" vertex="1" parent="C84C1XWZvULB8mIjfQMl-38">
          <mxGeometry width="30" height="20" as="geometry" />
        </mxCell>
        <mxCell id="C84C1XWZvULB8mIjfQMl-41" value="" style="fillColor=#F2931E;strokeColor=none;fontSize=21;" vertex="1" parent="1">
          <mxGeometry x="670" y="500" width="30" height="120" as="geometry" />
        </mxCell>
        <mxCell id="C84C1XWZvULB8mIjfQMl-42" value="" style="shape=mxgraph.arrows2.arrow;dy=0.4;dx=16;notch=0;direction=south;fillColor=#F5AB50;strokeColor=none;fontSize=21;" vertex="1" parent="C84C1XWZvULB8mIjfQMl-41">
          <mxGeometry x="3" width="24" height="80" as="geometry" />
        </mxCell>
        <mxCell id="C84C1XWZvULB8mIjfQMl-43" value="Label" style="text;html=1;align=center;verticalAlign=middle;whiteSpace=wrap;fontColor=#FFFFFF;fontSize=10;strokeColor=none;fillColor=none;" vertex="1" parent="C84C1XWZvULB8mIjfQMl-41">
          <mxGeometry width="30" height="20" as="geometry" />
        </mxCell>
        <mxCell id="C84C1XWZvULB8mIjfQMl-44" value="" style="fillColor=#AE4132;strokeColor=none;fontSize=21;" vertex="1" parent="1">
          <mxGeometry x="705" y="490" width="30" height="130" as="geometry" />
        </mxCell>
        <mxCell id="C84C1XWZvULB8mIjfQMl-45" value="" style="shape=mxgraph.arrows2.arrow;dy=0.4;dx=16;notch=0;direction=north;fillColor=#E85642;strokeColor=none;fontSize=21;" vertex="1" parent="C84C1XWZvULB8mIjfQMl-44">
          <mxGeometry x="3" y="80" width="24" height="50" as="geometry" />
        </mxCell>
        <mxCell id="C84C1XWZvULB8mIjfQMl-46" value="Label" style="text;html=1;align=center;verticalAlign=middle;whiteSpace=wrap;fontColor=#FFFFFF;fontSize=10;strokeColor=none;fillColor=none;" vertex="1" parent="C84C1XWZvULB8mIjfQMl-44">
          <mxGeometry width="30" height="20" as="geometry" />
        </mxCell>
        <mxCell id="C84C1XWZvULB8mIjfQMl-47" value="" style="fillColor=#12AAB5;strokeColor=none;fontSize=21;" vertex="1" parent="1">
          <mxGeometry x="740" y="540" width="30" height="80" as="geometry" />
        </mxCell>
        <mxCell id="C84C1XWZvULB8mIjfQMl-48" value="" style="shape=mxgraph.arrows2.arrow;dy=0.4;dx=16;notch=0;direction=south;fillColor=#64BBE2;strokeColor=none;fontSize=21;" vertex="1" parent="C84C1XWZvULB8mIjfQMl-47">
          <mxGeometry x="3" width="24" height="30" as="geometry" />
        </mxCell>
        <mxCell id="C84C1XWZvULB8mIjfQMl-49" value="Label" style="text;html=1;align=center;verticalAlign=middle;whiteSpace=wrap;fontColor=#FFFFFF;fontSize=10;strokeColor=none;fillColor=none;" vertex="1" parent="C84C1XWZvULB8mIjfQMl-47">
          <mxGeometry width="30" height="20" as="geometry" />
        </mxCell>
        <mxCell id="C84C1XWZvULB8mIjfQMl-50" value="" style="fillColor=#23445D;strokeColor=none;fontSize=21;" vertex="1" parent="1">
          <mxGeometry x="775" y="550" width="30" height="70" as="geometry" />
        </mxCell>
        <mxCell id="C84C1XWZvULB8mIjfQMl-51" value="" style="shape=mxgraph.arrows2.arrow;dy=0.4;dx=16;notch=0;direction=north;fillColor=#2F5B7C;strokeColor=none;fontSize=21;" vertex="1" parent="C84C1XWZvULB8mIjfQMl-50">
          <mxGeometry x="3" y="10" width="24" height="60" as="geometry" />
        </mxCell>
        <mxCell id="C84C1XWZvULB8mIjfQMl-52" value="Label" style="text;html=1;align=center;verticalAlign=middle;whiteSpace=wrap;fontColor=#FFFFFF;fontSize=10;strokeColor=none;fillColor=none;" vertex="1" parent="C84C1XWZvULB8mIjfQMl-50">
          <mxGeometry width="30" height="20" as="geometry" />
        </mxCell>
        <mxCell id="C84C1XWZvULB8mIjfQMl-53" value="" style="shape=image;html=1;verticalAlign=top;verticalLabelPosition=bottom;labelBackgroundColor=#ffffff;imageAspect=0;aspect=fixed;image=https://cdn1.iconfinder.com/data/icons/icons-for-a-site-1/64/advantage_nearby-128.png;fontSize=21;" vertex="1" parent="1">
          <mxGeometry x="176" y="330" width="180" height="180" as="geometry" />
        </mxCell>
        <mxCell id="C84C1XWZvULB8mIjfQMl-54" value="" style="shape=table;html=1;whiteSpace=wrap;startSize=0;container=1;collapsible=0;childLayout=tableLayout;columnLines=0;rowLines=0;fontSize=21;" vertex="1" parent="1">
          <mxGeometry x="622" y="150" width="218" height="260" as="geometry" />
        </mxCell>
        <mxCell id="C84C1XWZvULB8mIjfQMl-55" value="" style="shape=tableRow;horizontal=0;startSize=0;swimlaneHead=0;swimlaneBody=0;top=0;left=0;bottom=0;right=0;collapsible=0;dropTarget=0;fillColor=none;points=[[0,0.5],[1,0.5]];portConstraint=eastwest;fontSize=21;" vertex="1" parent="C84C1XWZvULB8mIjfQMl-54">
          <mxGeometry width="218" height="87" as="geometry" />
        </mxCell>
        <mxCell id="C84C1XWZvULB8mIjfQMl-56" value="Value 1" style="shape=partialRectangle;html=1;whiteSpace=wrap;connectable=0;fillColor=none;top=0;left=0;bottom=0;right=0;overflow=hidden;fontSize=12;" vertex="1" parent="C84C1XWZvULB8mIjfQMl-55">
          <mxGeometry width="73" height="87" as="geometry">
            <mxRectangle width="73" height="87" as="alternateBounds" />
          </mxGeometry>
        </mxCell>
        <mxCell id="C84C1XWZvULB8mIjfQMl-57" value="Value 2" style="shape=partialRectangle;html=1;whiteSpace=wrap;connectable=0;fillColor=none;top=0;left=0;bottom=0;right=0;overflow=hidden;fontSize=12;" vertex="1" parent="C84C1XWZvULB8mIjfQMl-55">
          <mxGeometry x="73" width="72" height="87" as="geometry">
            <mxRectangle width="72" height="87" as="alternateBounds" />
          </mxGeometry>
        </mxCell>
        <mxCell id="C84C1XWZvULB8mIjfQMl-58" value="Value 3" style="shape=partialRectangle;html=1;whiteSpace=wrap;connectable=0;fillColor=none;top=0;left=0;bottom=0;right=0;overflow=hidden;fontSize=12;" vertex="1" parent="C84C1XWZvULB8mIjfQMl-55">
          <mxGeometry x="145" width="73" height="87" as="geometry">
            <mxRectangle width="73" height="87" as="alternateBounds" />
          </mxGeometry>
        </mxCell>
        <mxCell id="C84C1XWZvULB8mIjfQMl-59" value="" style="shape=tableRow;horizontal=0;startSize=0;swimlaneHead=0;swimlaneBody=0;top=0;left=0;bottom=0;right=0;collapsible=0;dropTarget=0;fillColor=none;points=[[0,0.5],[1,0.5]];portConstraint=eastwest;fontSize=21;" vertex="1" parent="C84C1XWZvULB8mIjfQMl-54">
          <mxGeometry y="87" width="218" height="86" as="geometry" />
        </mxCell>
        <mxCell id="C84C1XWZvULB8mIjfQMl-60" value="Value 4" style="shape=partialRectangle;html=1;whiteSpace=wrap;connectable=0;fillColor=none;top=0;left=0;bottom=0;right=0;overflow=hidden;fontSize=12;" vertex="1" parent="C84C1XWZvULB8mIjfQMl-59">
          <mxGeometry width="73" height="86" as="geometry">
            <mxRectangle width="73" height="86" as="alternateBounds" />
          </mxGeometry>
        </mxCell>
        <mxCell id="C84C1XWZvULB8mIjfQMl-61" value="Value 5" style="shape=partialRectangle;html=1;whiteSpace=wrap;connectable=0;fillColor=none;top=0;left=0;bottom=0;right=0;overflow=hidden;fontSize=12;" vertex="1" parent="C84C1XWZvULB8mIjfQMl-59">
          <mxGeometry x="73" width="72" height="86" as="geometry">
            <mxRectangle width="72" height="86" as="alternateBounds" />
          </mxGeometry>
        </mxCell>
        <mxCell id="C84C1XWZvULB8mIjfQMl-62" value="Value 6" style="shape=partialRectangle;html=1;whiteSpace=wrap;connectable=0;fillColor=none;top=0;left=0;bottom=0;right=0;overflow=hidden;fontSize=12;" vertex="1" parent="C84C1XWZvULB8mIjfQMl-59">
          <mxGeometry x="145" width="73" height="86" as="geometry">
            <mxRectangle width="73" height="86" as="alternateBounds" />
          </mxGeometry>
        </mxCell>
        <mxCell id="C84C1XWZvULB8mIjfQMl-63" value="" style="shape=tableRow;horizontal=0;startSize=0;swimlaneHead=0;swimlaneBody=0;top=0;left=0;bottom=0;right=0;collapsible=0;dropTarget=0;fillColor=none;points=[[0,0.5],[1,0.5]];portConstraint=eastwest;fontSize=21;" vertex="1" parent="C84C1XWZvULB8mIjfQMl-54">
          <mxGeometry y="173" width="218" height="87" as="geometry" />
        </mxCell>
        <mxCell id="C84C1XWZvULB8mIjfQMl-64" value="Value 7" style="shape=partialRectangle;html=1;whiteSpace=wrap;connectable=0;fillColor=none;top=0;left=0;bottom=0;right=0;overflow=hidden;fontSize=12;" vertex="1" parent="C84C1XWZvULB8mIjfQMl-63">
          <mxGeometry width="73" height="87" as="geometry">
            <mxRectangle width="73" height="87" as="alternateBounds" />
          </mxGeometry>
        </mxCell>
        <mxCell id="C84C1XWZvULB8mIjfQMl-65" value="Value 8" style="shape=partialRectangle;html=1;whiteSpace=wrap;connectable=0;fillColor=none;top=0;left=0;bottom=0;right=0;overflow=hidden;fontSize=12;" vertex="1" parent="C84C1XWZvULB8mIjfQMl-63">
          <mxGeometry x="73" width="72" height="87" as="geometry">
            <mxRectangle width="72" height="87" as="alternateBounds" />
          </mxGeometry>
        </mxCell>
        <mxCell id="C84C1XWZvULB8mIjfQMl-66" value="Value 9" style="shape=partialRectangle;html=1;whiteSpace=wrap;connectable=0;fillColor=none;top=0;left=0;bottom=0;right=0;overflow=hidden;fontSize=12;" vertex="1" parent="C84C1XWZvULB8mIjfQMl-63">
          <mxGeometry x="145" width="73" height="87" as="geometry">
            <mxRectangle width="73" height="87" as="alternateBounds" />
          </mxGeometry>
        </mxCell>
      </root>
    </mxGraphModel>
  </diagram>
</mxfile>
